<?xml version="1.0" encoding="UTF-8"?>
<svg width="16px" height="20px" viewBox="0 0 16 20" version="1.1" xmlns="http://www.w3.org/2000/svg" xmlns:xlink="http://www.w3.org/1999/xlink">
    <!-- Generator: Sketch 49 (51002) - http://www.bohemiancoding.com/sketch -->
    <title>Android</title>
    <desc>Created with Sketch.</desc>
    <defs></defs>
    <g id="算立方1.0第一部分" stroke="none" stroke-width="1" fill="none" fill-rule="evenodd">
        <g id="11.13安全中心_Google验证" transform="translate(-657.000000, -459.000000)" fill="#FFFFFF">
            <g id="Page-1" transform="translate(657.000000, 459.000000)">
                <g id="Group-7">
                    <path d="M10.0000169,4.16744297 C9.7790896,4.16744297 9.60000541,3.98096023 9.60000541,3.75090569 L9.60000541,3.75068037 C9.60000541,3.52062583 9.7790896,3.33414309 10.0000169,3.33414309 C10.2209442,3.33414309 10.4000284,3.52062583 10.4000284,3.75068037 L10.4000284,3.75090569 C10.4000284,3.98096023 10.2209442,4.16744297 10.0000169,4.16744297 Z M5.9999831,4.16744297 C5.77905579,4.16744297 5.5999716,3.98096023 5.5999716,3.75090569 L5.5999716,3.75068037 C5.5999716,3.52062583 5.77905579,3.33414309 5.9999831,3.33414309 C6.2209104,3.33414309 6.39999459,3.52062583 6.39999459,3.75068037 L6.39999459,3.75090569 C6.39999459,3.98096023 6.2209104,4.16744297 5.9999831,4.16744297 Z M10.8239232,1.80090622 L11.8680265,0.713470428 C12.0239577,0.550956389 12.0239577,0.288568039 11.8680265,0.126054 C11.7119601,-0.0364318733 11.4599818,-0.0364318733 11.3040235,0.126054 L10.1199473,1.35510514 C9.4799668,1.0259086 8.76395461,0.834271591 7.99995943,0.834271591 C7.23193411,0.834271591 6.51199997,1.0259086 5.86801636,1.35927362 L4.68004524,0.121885529 C4.52397881,-0.0406285097 4.27200051,-0.0406285097 4.11593409,0.121885529 C3.95997586,0.284371402 3.95997586,0.546787918 4.11593409,0.709273792 L5.16393229,1.80090622 C3.97593412,2.71340706 3.20001082,4.18000472 3.20001082,5.83404275 L12.8000162,5.83404275 C12.8000162,4.17580808 12.0199546,2.70923859 10.8239232,1.80090622 Z M14.7999655,6.66734263 C14.1360205,6.66734263 13.599931,7.22569243 13.599931,7.91729247 L13.599931,13.7503917 C13.599931,14.4419635 14.1360205,15.0003415 14.7999655,15.0003415 C15.4639105,15.0003415 16,14.4419635 16,13.7503917 L16,7.91729247 C16,7.22569243 15.4639105,6.66734263 14.7999655,6.66734263 Z M1.20003449,6.66734263 C0.536008371,6.66734263 0,7.22569243 0,7.91729247 L0,13.7503917 C0,14.4419635 0.536008371,15.0003415 1.20003449,15.0003415 C1.86397946,15.0003415 2.39998783,14.4419635 2.39998783,13.7503917 L2.39998783,7.91729247 C2.39998783,7.22569243 1.86397946,6.66734263 1.20003449,6.66734263 Z M3.20001082,15.0003415 C3.20001082,15.4585635 3.55996436,15.8336132 4.00003381,15.8336132 L4.79994861,15.8336132 L4.79994861,18.7500502 C4.79994861,19.4417629 5.33595698,20 5.9999831,20 C6.66392807,20 7.19993644,19.4417629 7.19993644,18.7500502 L7.19993644,15.8335287 L8.79998242,15.8335287 L8.79998242,18.7500502 C8.79998242,19.4416502 9.33596374,20 10.0000169,20 C10.6639619,20 11.1999432,19.4416502 11.1999432,18.7500502 L11.1999432,15.8335287 L11.9999662,15.8335287 C12.4399274,15.8335287 12.8000162,15.4585635 12.8000162,15.0002288 L12.8000162,6.66734263 L3.20001082,6.66734263 L3.20001082,15.0003415 Z" id="Android"></path>
                </g>
            </g>
        </g>
    </g>
</svg>