<?xml version="1.0" encoding="UTF-8"?>
<svg width="16px" height="16px" viewBox="0 0 16 16" version="1.1" xmlns="http://www.w3.org/2000/svg" xmlns:xlink="http://www.w3.org/1999/xlink">
    <!-- Generator: Sketch 49 (51002) - http://www.bohemiancoding.com/sketch -->
    <title>weihuzhong_jieshi</title>
    <desc>Created with Sketch.</desc>
    <defs></defs>
    <g id="切图" stroke="none" stroke-width="1" fill="none" fill-rule="evenodd">
        <g id="Artboard" transform="translate(-530.000000, -203.000000)" fill="#969699">
            <g id="weihuzhong_jieshi" transform="translate(530.000000, 203.000000)">
                <path d="M8,15.5 C3.85786438,15.5 0.5,12.1421356 0.5,8 C0.5,3.85786438 3.85786438,0.5 8,0.5 C12.1421356,0.5 15.5,3.85786438 15.5,8 C15.5,12.1421356 12.1421356,15.5 8,15.5 Z M8,14.5 C11.5898509,14.5 14.5,11.5898509 14.5,8 C14.5,4.41014913 11.5898509,1.5 8,1.5 C4.41014913,1.5 1.5,4.41014913 1.5,8 C1.5,11.5898509 4.41014913,14.5 8,14.5 Z" id="Oval" fill-rule="nonzero"></path>
                <path d="M7.34509646,11.4544236 L8.67967876,11.4544236 L8.67967876,12.7890059 L7.34509646,12.7890059 L7.34509646,11.4544236 Z M5.38530445,6.88558334 C5.3772889,6.47679032 5.43540076,6.09605744 5.55964177,5.74337327 C5.68388279,5.3906891 5.86222609,5.08409893 6.09467702,4.82359358 C6.32712795,4.56308822 6.61167568,4.36069864 6.94832875,4.21641875 C7.28498183,4.07213886 7.661707,4 8.07851556,4 C8.45524638,4 8.79790598,4.05410415 9.10650463,4.16231406 C9.41510328,4.27052398 9.6816163,4.42682485 9.90605168,4.63122136 C10.1304871,4.83561786 10.3048226,5.08610002 10.4290637,5.38267535 C10.5533047,5.67925068 10.6154242,6.01990641 10.6154242,6.40465278 C10.6154242,6.65313481 10.5853664,6.87556297 10.5252498,7.07194393 C10.4651332,7.26832489 10.3869827,7.44666819 10.2907961,7.60697918 C10.1946095,7.76729016 10.0843974,7.9155756 9.96015637,8.05183994 C9.83591535,8.18810428 9.70967234,8.32035886 9.58142355,8.44860765 C9.45317476,8.56884089 9.32693175,8.69107618 9.20269074,8.8153172 C9.07844972,8.93955821 8.96623372,9.07181279 8.86603935,9.21208491 C8.76584498,9.35235702 8.68569069,9.50465018 8.62557407,9.66896894 C8.56545745,9.8332877 8.53539959,10.0196464 8.53539959,10.2280507 L8.53539959,10.696958 L7.51342216,10.696958 L7.51342216,10.1318646 C7.52945326,9.79521153 7.59157283,9.50865993 7.69978275,9.27220123 C7.80799267,9.03574252 7.94024725,8.82533751 8.09655046,8.64097987 C8.25285367,8.45662224 8.41716997,8.28629437 8.58950428,8.12999116 C8.76183859,7.97368794 8.92214717,7.80937165 9.07043484,7.63703734 C9.2187225,7.46470302 9.33695008,7.27433658 9.42512112,7.0659323 C9.51329216,6.85752802 9.5493616,6.605042 9.5333305,6.30846667 C9.5012683,5.86761146 9.35899443,5.52294801 9.10650463,5.27446598 C8.85401482,5.02598395 8.51135523,4.90174479 8.07851556,4.90174479 C7.78995579,4.90174479 7.54147748,4.95384508 7.3330732,5.05804722 C7.12466892,5.16224937 6.95033333,5.30251938 6.81006122,5.47886146 C6.66978911,5.65520355 6.56759238,5.8636047 6.50346799,6.10407119 C6.4393436,6.34453767 6.40728188,6.60503911 6.40728188,6.88558334 L5.38530445,6.88558334 Z" id="?"></path>
            </g>
        </g>
    </g>
</svg>