<?xml version="1.0" encoding="UTF-8"?>
<svg width="12px" height="16px" viewBox="0 0 12 16" version="1.1" xmlns="http://www.w3.org/2000/svg" xmlns:xlink="http://www.w3.org/1999/xlink">
    <!-- Generator: Sketch 49.3 (51167) - http://www.bohemiancoding.com/sketch -->
    <title>app_nav</title>
    <desc>Created with Sketch.</desc>
    <defs></defs>
    <g id="切图" stroke="none" stroke-width="1" fill="none" fill-rule="evenodd">
        <g id="Group-55" fill="#666666" fill-rule="nonzero">
            <path d="M2,1 C1.44771525,1 1,1.44771525 1,2 L1,14 C1,14.5522847 1.44771525,15 2,15 L10,15 C10.5522847,15 11,14.5522847 11,14 L11,2 C11,1.44771525 10.5522847,1 10,1 L2,1 Z M2,0 L10,0 C11.1045695,-2.02906125e-16 12,0.8954305 12,2 L12,14 C12,15.1045695 11.1045695,16 10,16 L2,16 C0.8954305,16 1.3527075e-16,15.1045695 0,14 L0,2 C-1.3527075e-16,0.8954305 0.8954305,2.02906125e-16 2,0 Z" id="Rectangle-2"></path>
            <path d="M4.5,14 C4.22385763,14 4,13.7761424 4,13.5 C4,13.2238576 4.22385763,13 4.5,13 L7.5,13 C7.77614237,13 8,13.2238576 8,13.5 C8,13.7761424 7.77614237,14 7.5,14 L4.5,14 Z" id="Line-3"></path>
            <path d="M3,3 L3,11 L9,11 L9,3 L3,3 Z M2,2 L10,2 L10,12 L2,12 L2,2 Z" id="Rectangle-10"></path>
        </g>
    </g>
</svg>