<?xml version="1.0" encoding="UTF-8"?>
<svg width="17px" height="17px" viewBox="0 0 17 17" version="1.1" xmlns="http://www.w3.org/2000/svg" xmlns:xlink="http://www.w3.org/1999/xlink">
    <!-- Generator: Sketch 49.3 (51167) - http://www.bohemiancoding.com/sketch -->
    <title>guifan_fabu</title>
    <desc>Created with Sketch.</desc>
    <defs></defs>
    <g id="切图" stroke="none" stroke-width="1" fill="none" fill-rule="evenodd">
        <g id="Group-3" transform="translate(1.000000, 1.000000)">
            <circle id="Oval-8" stroke="#0063EE" fill="#0063EE" cx="7.5" cy="7.5" r="7.5"></circle>
            <path d="M7.724,3 C8.492,3 9.104,3.204 9.572,3.636 C10.016,4.044 10.244,4.608 10.244,5.328 C10.244,5.868 10.088,6.336 9.788,6.732 C9.668,6.876 9.344,7.188 8.816,7.656 C8.552,7.884 8.372,8.1 8.252,8.316 C8.096,8.58 8.024,8.868 8.024,9.192 L8.024,9.468 L7.064,9.468 L7.064,9.192 C7.064,8.796 7.136,8.448 7.28,8.148 C7.448,7.788 7.844,7.332 8.492,6.756 C8.684,6.564 8.828,6.42 8.9,6.324 C9.14,6.024 9.26,5.712 9.26,5.376 C9.26,4.896 9.116,4.524 8.852,4.26 C8.576,3.972 8.18,3.84 7.676,3.84 C7.076,3.84 6.632,4.032 6.344,4.428 C6.08,4.764 5.948,5.22 5.948,5.808 L5,5.808 C5,4.968 5.228,4.296 5.708,3.792 C6.188,3.264 6.86,3 7.724,3 Z M7.544,10.308 C7.748,10.308 7.928,10.368 8.072,10.512 C8.204,10.644 8.276,10.812 8.276,11.016 C8.276,11.232 8.204,11.4 8.06,11.532 C7.916,11.664 7.748,11.736 7.544,11.736 C7.34,11.736 7.172,11.664 7.028,11.532 C6.884,11.388 6.824,11.22 6.824,11.016 C6.824,10.812 6.884,10.644 7.028,10.512 C7.172,10.368 7.34,10.308 7.544,10.308 Z" id="？" fill="#FFFFFF"></path>
        </g>
    </g>
</svg>