<?xml version="1.0" encoding="UTF-8"?>
<svg width="16px" height="16px" viewBox="0 0 16 16" version="1.1" xmlns="http://www.w3.org/2000/svg" xmlns:xlink="http://www.w3.org/1999/xlink">
    <!-- Generator: Sketch 49.3 (51167) - http://www.bohemiancoding.com/sketch -->
    <title>register_nav</title>
    <desc>Created with Sketch.</desc>
    <defs></defs>
    <g id="切图" stroke="none" stroke-width="1" fill="none" fill-rule="evenodd">
        <g id="Group-58" fill="#4D87EA" fill-rule="nonzero">
            <path d="M8.03555556,9.44 C5.8016907,9.44 4.01777778,7.43309796 4.01777778,4.98666667 C4.01777778,2.54023537 5.8016907,0.533333333 8.03555556,0.533333333 C10.2694204,0.533333333 12.0533333,2.54023537 12.0533333,4.98666667 C12.0533333,7.43309796 10.2694204,9.44 8.03555556,9.44 Z M8.03555556,8.37333333 C9.65050176,8.37333333 10.9866667,6.87014781 10.9866667,4.98666667 C10.9866667,3.10318552 9.65050176,1.6 8.03555556,1.6 C6.42060935,1.6 5.08444444,3.10318552 5.08444444,4.98666667 C5.08444444,6.87014781 6.42060935,8.37333333 8.03555556,8.37333333 Z" id="Oval-2"></path>
            <path d="M8.11965562,14.4088889 C8.41420749,14.4088889 8.65298896,14.6476704 8.65298896,14.9422222 C8.65298896,15.2367741 8.41420749,15.4755556 8.11965562,15.4755556 L0.533333333,15.4755556 L0.533333333,14.9422222 C0.533333333,12.4816806 3.56203977,10.4888889 8.03555556,10.4888889 C8.33010742,10.4888889 8.56888889,10.7276704 8.56888889,11.0222222 C8.56888889,11.3167741 8.33010742,11.5555556 8.03555556,11.5555556 C4.48522088,11.5555556 2.12322234,12.8705671 1.67688284,14.4088889 L8.11965562,14.4088889 Z" id="Oval-5"></path>
            <g id="Group-57" transform="translate(8.035556, 9.031111)">
                <path d="M3.23555556,2.73777778 L3.23555556,0.995555556 C3.23555556,0.583182942 3.56984961,0.248888889 3.98222222,0.248888889 C4.39459484,0.248888889 4.72888889,0.583182942 4.72888889,0.995555556 L4.72888889,2.73777778 L6.47111111,2.73777778 C6.88348372,2.73777778 7.21777778,3.07207183 7.21777778,3.48444444 C7.21777778,3.89681706 6.88348372,4.23111111 6.47111111,4.23111111 L4.72888889,4.23111111 L4.72888889,5.97333333 C4.72888889,6.38570595 4.39459484,6.72 3.98222222,6.72 C3.56984961,6.72 3.23555556,6.38570595 3.23555556,5.97333333 L3.23555556,4.23111111 L1.49333333,4.23111111 C1.08096072,4.23111111 0.746666667,3.89681706 0.746666667,3.48444444 C0.746666667,3.07207183 1.08096072,2.73777778 1.49333333,2.73777778 L3.23555556,2.73777778 Z" id="Combined-Shape"></path>
            </g>
        </g>
    </g>
</svg>