<?xml version="1.0" encoding="UTF-8"?>
<svg width="16px" height="16px" viewBox="0 0 16 16" version="1.1" xmlns="http://www.w3.org/2000/svg" xmlns:xlink="http://www.w3.org/1999/xlink">
    <!-- Generator: Sketch 49.3 (51167) - http://www.bohemiancoding.com/sketch -->
    <title>Sign in_nav</title>
    <desc>Created with Sketch.</desc>
    <defs></defs>
    <g id="切图" stroke="none" stroke-width="1" fill="none" fill-rule="evenodd">
        <g id="Group-56" fill="#666666" fill-rule="nonzero">
            <path d="M8,9.375 C5.77688526,9.375 4,7.37600408 4,4.9375 C4,2.49899592 5.77688526,0.5 8,0.5 C10.2231147,0.5 12,2.49899592 12,4.9375 C12,7.37600408 10.2231147,9.375 8,9.375 Z M8,8.375 C9.64287851,8.375 11,6.84823832 11,4.9375 C11,3.02676168 9.64287851,1.5 8,1.5 C6.35712149,1.5 5,3.02676168 5,4.9375 C5,6.84823832 6.35712149,8.375 8,8.375 Z" id="Oval-2"></path>
            <path d="M15.5,14.5625 L15.5,15.0625 L0.5,15.0625 L0.5,14.5625 C0.5,12.1146084 3.52386827,10.125 8,10.125 C12.4761317,10.125 15.5,12.1146084 15.5,14.5625 Z M8,11.125 C4.38576006,11.125 1.98608185,12.4798551 1.56597848,14.0625 L14.4340215,14.0625 C14.0139181,12.4798551 11.6142399,11.125 8,11.125 Z" id="Oval-5"></path>
        </g>
    </g>
</svg>