<?xml version="1.0" encoding="UTF-8"?>
<svg width="14px" height="14px" viewBox="0 0 14 14" version="1.1" xmlns="http://www.w3.org/2000/svg" xmlns:xlink="http://www.w3.org/1999/xlink">
    <!-- Generator: Sketch 49.3 (51167) - http://www.bohemiancoding.com/sketch -->
    <title>tougao_nav</title>
    <desc>Created with Sketch.</desc>
    <defs></defs>
    <g id="切图" stroke="none" stroke-width="1" fill="none" fill-rule="evenodd">
        <g id="Group-32" fill="#666666" fill-rule="nonzero">
            <path d="M2,1 C1.44771525,1 1,1.44771525 1,2 L1,12 C1,12.5522847 1.44771525,13 2,13 L12,13 C12.5522847,13 13,12.5522847 13,12 L13,2 C13,1.44771525 12.5522847,1 12,1 L2,1 Z M2,0 L12,0 C13.1045695,-2.02906125e-16 14,0.8954305 14,2 L14,12 C14,13.1045695 13.1045695,14 12,14 L2,14 C0.8954305,14 1.3527075e-16,13.1045695 0,12 L0,2 C-1.3527075e-16,0.8954305 0.8954305,2.02906125e-16 2,0 Z" id="Rectangle-9"></path>
            <path d="M6.59897514,9.44765406 L7.68806908,8.29260268 L7.21771391,7.58060365 C7.05931996,7.34083517 7.13514886,7.01721104 7.38356902,6.87276385 L8.98343058,5.94250318 C9.71690107,4.9262014 10.221428,4.15695849 10.4925076,3.64543099 C8.26309221,4.31377898 6.17863716,6.13173931 4.25005739,9.11801741 C4.914942,8.98130884 5.70429774,9.0944427 6.59897514,9.44765406 Z M10.6969893,3.18681991 C10.6992692,3.17874451 10.7003358,3.17364001 10.7002388,3.17173404 C10.7002655,3.17225861 10.6991823,3.17728724 10.6969893,3.18681991 Z M8.74074654,8.07186031 C8.86864991,8.26547373 8.846537,8.52164227 8.68734683,8.69047328 L7.08855176,10.3860942 C6.94265678,10.5408248 6.71485029,10.5863376 6.52070176,10.4995432 C5.01423891,9.82607687 4.07814876,9.93663431 3.54237688,10.7444992 C2.77331677,11.9041282 2.4476794,12.3819737 2.34879478,12.4782488 C1.94688262,12.8695546 1.30432351,12.4040561 1.55089578,11.9002151 C4.241649,6.40198166 7.33598431,3.2579688 10.8641934,2.5200888 C11.2884964,2.43135122 11.6754126,2.65850757 11.6989462,3.12090531 C11.7108037,3.35388826 11.6245192,3.61741303 11.4519944,3.96580162 C11.163071,4.54924007 10.5915914,5.42734586 9.73136539,6.6147664 L9.5777864,6.75366962 L8.34389733,7.47113075 L8.74074654,8.07186031 Z" id="Path-2"></path>
        </g>
    </g>
</svg>