<?xml version="1.0" encoding="UTF-8"?>
<svg width="71px" height="20px" viewBox="0 0 71 20" version="1.1" xmlns="http://www.w3.org/2000/svg" xmlns:xlink="http://www.w3.org/1999/xlink">
    <!-- Generator: Sketch 49 (51002) - http://www.bohemiancoding.com/sketch -->
    <title>tuoguan_tag_btc</title>
    <desc>Created with Sketch.</desc>
    <defs></defs>
    <g id="切图" stroke="none" stroke-width="1" fill="none" fill-rule="evenodd">
        <g id="Artboard" transform="translate(-26.000000, -94.000000)">
            <g id="tuoguan_tag_btc" transform="translate(26.000000, 94.000000)">
                <path d="M10,0 L71,0 L71,20 L10,20 C4.4771525,20 6.76353751e-16,15.5228475 0,10 L0,10 C-6.76353751e-16,4.4771525 4.4771525,1.01453063e-15 10,0 Z" id="Rectangle-2" fill="#303137"></path>
                <g id="比特币" transform="translate(3.000000, 3.000000)" fill="#FFFFFF" fill-rule="nonzero">
                    <path d="M7,0 C3.13406897,0 0,3.13406897 0,7 C0,10.865931 3.13406897,14 7,14 C10.865931,14 14,10.865931 14,7 C14,3.13406897 10.865931,0 7,0 Z M7,12.850069 C3.76913793,12.850069 1.14993105,10.2308621 1.14993105,7 C1.14993105,3.76913795 3.76913795,1.14993105 7,1.14993105 C10.2308621,1.14993105 12.850069,3.76913793 12.850069,7 C12.850069,10.2308621 10.2308621,12.850069 7,12.850069 Z M9.64213794,6.81799999 C9.86637933,6.50155171 10.0001034,6.10544827 10.0001034,5.67506895 C10.0001034,4.6395517 9.22768965,3.80003447 8.27520689,3.80003447 C8.19893103,3.80003447 8.10624139,3.80003447 8.00027586,3.80003447 L8.00027586,2.35006895 C8.00027586,2.26751723 7.93268965,2.2001724 7.85037931,2.2001724 L7.35,2.20017242 C7.26744828,2.20017242 7.20010345,2.26775863 7.20010345,2.35006897 L7.20010345,3.80003449 L6.40017241,3.80003449 L6.40017241,2.35006897 C6.40017241,2.26751725 6.3325862,2.20017242 6.25027586,2.20017242 L5.7503793,2.20017242 C5.66782758,2.20017242 5.60048275,2.26775863 5.60048275,2.35006897 L5.60048275,3.80003449 L3.95041379,3.80003449 C3.86762068,3.80003449 3.80051723,3.86713793 3.80051723,3.94993104 L3.80051723,4.45489655 C3.80051723,4.53213793 3.85820689,4.59899999 3.93520689,4.606 C4.49858619,4.65765517 4.80055171,5.03565517 4.80055171,5.50006897 L4.80055171,8.60010345 C4.80055171,9.01793103 4.58499997,9.34958621 4.11382757,9.39496551 C4.04696551,9.40148275 3.99144826,9.44903447 3.97889653,9.5151724 L3.88331032,10.0249655 C3.86617239,10.1159655 3.93617238,10.2002069 4.02886204,10.2002069 L5.6,10.2002069 L5.6,11.6501724 C5.6,11.7327241 5.66758622,11.800069 5.74989656,11.800069 L6.24979311,11.800069 C6.33234484,11.800069 6.39968966,11.7324827 6.39968966,11.6501724 L6.39968966,10.2002069 L7.19962071,10.2002069 L7.19962071,11.6501724 C7.19962071,11.7327241 7.26720692,11.800069 7.34951726,11.800069 L7.84941381,11.800069 C7.93196554,11.800069 7.99931036,11.7324827 7.99931036,11.6501724 L7.99931036,10.2002069 C8.28268967,10.2002069 8.51803449,10.2002069 8.67420692,10.2002069 C9.62693106,10.2002069 10.3991035,9.37203447 10.3991035,8.35027586 C10.400069,7.71255172 10.0995517,7.15062068 9.64213794,6.81799999 Z M6.39993105,4.99993103 C6.39993105,4.99993103 7.16920691,4.99993103 7.62493104,4.99993103 C8.08065517,4.99993103 8.44996551,5.36924137 8.44996551,5.8249655 C8.44996551,6.28068963 8.08065517,6.64999997 7.62493104,6.64999997 C7.16920691,6.64999997 6.39993105,6.64999997 6.39993105,6.64999997 L6.39993105,4.99993103 Z M8.02489656,9.05003449 C7.56917243,9.05003449 6.39993105,9.05003449 6.39993105,9.05003449 L6.39993105,7.39996552 C6.39993105,7.39996552 7.56917243,7.39996552 8.02489656,7.39996552 C8.48062069,7.39996552 8.84993103,7.76927587 8.84993103,8.22499999 C8.84993103,8.68072414 8.48062069,9.05003449 8.02489656,9.05003449 Z" id="Shape"></path>
                </g>
                <path d="M22.171875,15 L22.171875,5.92382812 L24.8378906,5.92382812 C25.6347696,5.92382812 26.271482,6.11425591 26.7480469,6.49511719 C27.2246118,6.87597847 27.4628906,7.38085623 27.4628906,8.00976562 C27.4628906,8.50976813 27.3212905,8.95116996 27.0380859,9.33398438 C26.7548814,9.71679879 26.3652369,9.98828045 25.8691406,10.1484375 L25.8691406,10.171875 C26.4863312,10.2421879 26.9794903,10.475584 27.3486328,10.8720703 C27.7177753,11.2685567 27.9023438,11.7714813 27.9023438,12.3808594 C27.9023438,13.1621133 27.6220731,13.7939429 27.0615234,14.2763672 C26.5009738,14.7587915 25.7832075,15 24.9082031,15 L22.171875,15 Z M23.34375,6.94921875 L23.34375,9.79101562 L24.4101562,9.79101562 C24.9765653,9.79101562 25.4208968,9.65332169 25.7431641,9.37792969 C26.0654313,9.10253769 26.2265625,8.72070557 26.2265625,8.23242188 C26.2265625,7.37694885 25.6562557,6.94921875 24.515625,6.94921875 L23.34375,6.94921875 Z M23.34375,10.8105469 L23.34375,13.9746094 L24.75,13.9746094 C25.3632843,13.9746094 25.8369124,13.8330092 26.1708984,13.5498047 C26.5048845,13.2666001 26.671875,12.8730494 26.671875,12.3691406 C26.671875,11.3300729 25.9668039,10.8105469 24.5566406,10.8105469 L23.34375,10.8105469 Z M34.6054688,6.96679688 L31.9863281,6.96679688 L31.9863281,15 L30.8085938,15 L30.8085938,6.96679688 L28.2011719,6.96679688 L28.2011719,5.92382812 L34.6054688,5.92382812 L34.6054688,6.96679688 Z M41.6308594,14.625 C40.9628873,14.9765643 40.125005,15.1523438 39.1171875,15.1523438 C37.8163997,15.1523438 36.7773476,14.7392619 36,13.9130859 C35.2226524,13.0869099 34.8339844,11.9941474 34.8339844,10.6347656 C34.8339844,9.17382082 35.27148,7.99805133 36.1464844,7.10742188 C37.0214888,6.21679242 38.1328058,5.77148438 39.4804688,5.77148438 C40.3476606,5.77148438 41.0644503,5.89453002 41.6308594,6.140625 L41.6308594,7.36523438 C40.9824186,7.00585758 40.2695351,6.82617188 39.4921875,6.82617188 C38.4804637,6.82617188 37.6562532,7.16308257 37.0195312,7.83691406 C36.3828093,8.51074556 36.0644531,9.41991615 36.0644531,10.5644531 C36.0644531,11.6503961 36.3613252,12.5126921 36.9550781,13.1513672 C37.5488311,13.7900423 38.3261671,14.109375 39.2871094,14.109375 C40.1855514,14.109375 40.9667936,13.906252 41.6308594,13.5 L41.6308594,14.625 Z M42.4277344,11.5253906 C43.4199268,10.2128841 44.1113262,8.70899285 44.5019531,7.01367188 L42.7558594,7.01367188 L42.7558594,6.16992188 L47.2910156,6.16992188 L47.2910156,7.01367188 L45.4042969,7.01367188 C45.232421,7.85742609 44.9824235,8.65819934 44.6542969,9.41601562 L46.7871094,9.41601562 L46.7871094,14.7128906 L44.4316406,14.7128906 L44.4316406,15.4394531 L43.5878906,15.4394531 L43.5878906,11.4199219 C43.3769521,11.7246109 43.1582043,12.0214829 42.9316406,12.3105469 C42.8144525,12.0917958 42.6464855,11.8300796 42.4277344,11.5253906 Z M47.8417969,6.93164062 L54.0058594,6.93164062 L54.0058594,7.79882812 L48.7324219,7.79882812 L48.7324219,11.2089844 C48.7324219,13.5761837 48.1269592,15.396478 46.9160156,16.6699219 C46.7207021,16.3886705 46.5175792,16.138673 46.3066406,15.9199219 C47.3300832,14.8027288 47.8417969,13.2402444 47.8417969,11.2324219 L47.8417969,6.93164062 Z M45.9433594,10.2363281 L44.4316406,10.2363281 L44.4316406,13.8925781 L45.9433594,13.8925781 L45.9433594,10.2363281 Z M50.0214844,5.45507812 L50.7597656,4.98632812 C51.1894553,5.55664348 51.5097646,6.02538879 51.7207031,6.39257812 L50.9589844,6.86132812 C50.6855455,6.38476324 50.3730486,5.91601793 50.0214844,5.45507812 Z M60.6035156,6.68554688 L60.6035156,10.5644531 C60.6035156,13.3613421 59.9043039,15.3886656 58.5058594,16.6464844 C58.2871083,16.380858 58.0566418,16.1152357 57.8144531,15.8496094 C59.0488343,14.7636664 59.6660156,13.0722771 59.6660156,10.7753906 L59.6660156,5.79492188 L64.0253906,5.79492188 L64.0253906,14.6074219 C64.0253906,14.9980488 64.162108,15.1933594 64.4355469,15.1933594 L64.7050781,15.1933594 C64.9550794,15.1933594 65.115234,14.9746116 65.1855469,14.5371094 C65.2636723,13.9355439 65.3183592,13.2871129 65.3496094,12.5917969 C65.6230482,12.72461 65.9199203,12.8496088 66.2402344,12.9667969 C66.1699215,13.7402382 66.0996097,14.3730444 66.0292969,14.8652344 C65.9042963,15.6933635 65.5058627,16.1074219 64.8339844,16.1074219 L64.2128906,16.1074219 C63.4628869,16.1074219 63.0878906,15.6621138 63.0878906,14.7714844 L63.0878906,6.68554688 L60.6035156,6.68554688 Z M54.4277344,12.3691406 C55.3027388,11.0644466 55.9257794,9.65821066 56.296875,8.15039062 L54.5449219,8.15039062 L54.5449219,7.35351562 L56.3730469,7.35351562 L56.3730469,5.04492188 L57.2167969,5.04492188 L57.2167969,7.35351562 L58.8574219,7.35351562 L58.8574219,8.15039062 L57.2167969,8.15039062 L57.2167969,10.0957031 L57.6855469,9.62695312 C58.2871124,10.1738309 58.7597639,10.6191389 59.1035156,10.9628906 L58.4707031,11.6074219 C57.990232,11.0761692 57.5722674,10.6347674 57.2167969,10.2832031 L57.2167969,16.4707031 L56.3730469,16.4707031 L56.3730469,10.1894531 C55.955076,11.5136785 55.43555,12.5839803 54.8144531,13.4003906 C54.6894525,13.0488264 54.5605475,12.7050798 54.4277344,12.3691406 Z" id="BTC矿机" fill="#FFFFFF"></path>
            </g>
        </g>
    </g>
</svg>