<?xml version="1.0" encoding="UTF-8"?>
<svg width="81px" height="20px" viewBox="0 0 81 20" version="1.1" xmlns="http://www.w3.org/2000/svg" xmlns:xlink="http://www.w3.org/1999/xlink">
    <!-- Generator: Sketch 50 (54983) - http://www.bohemiancoding.com/sketch -->
    <title>btm</title>
    <desc>Created with Sketch.</desc>
    <defs></defs>
    <g id="1.2增强版" stroke="none" stroke-width="1" fill="none" fill-rule="evenodd">
        <g id="4.1我的托管" transform="translate(-1710.000000, -1467.000000)">
            <g id="btm" transform="translate(1710.000000, 1467.000000)">
                <g id="DCR">
                    <path d="M10,0 L81,0 L81,20 L10,20 C4.4771525,20 6.76353751e-16,15.5228475 0,10 L0,10 C-6.76353751e-16,4.4771525 4.4771525,1.01453063e-15 10,0 Z" id="Rectangle-2" fill="#303137"></path>
                    <g id="比特币" transform="translate(3.000000, 3.000000)" fill="#FFFFFF" fill-rule="nonzero">
                        <path d="M7,0 C3.13406897,0 0,3.13406897 0,7 C0,10.865931 3.13406897,14 7,14 C10.865931,14 14,10.865931 14,7 C14,3.13406897 10.865931,0 7,0 Z M7,12.850069 C3.76913793,12.850069 1.14993105,10.2308621 1.14993105,7 C1.14993105,3.76913795 3.76913795,1.14993105 7,1.14993105 C10.2308621,1.14993105 12.850069,3.76913793 12.850069,7 C12.850069,10.2308621 10.2308621,12.850069 7,12.850069 Z M6.37797005,10.6388446 L6.11528989,10.9599248 L3.6638484,10.3324445 L5.41488947,9.64668404 L6.37797005,10.6388446 Z M6.11529241,3.00000258 L8.71272347,5.61187359 L7.93940899,6.41446785 L5.75654167,4.23293275 L4.60509808,4.53212329 L5.66222962,3.45964828 L4.60506098,4.53213293 L4.35705682,5.41488147 L3.67129641,3.6638804 L6.11529241,3.00000258 Z M4.53213693,9.39865989 L3.000016,7.88841897 L6.41449807,6.06429786 L4.23293675,8.24713919 L4.53213428,9.39864967 L5.41488547,9.64668004 L3.6638444,10.3324405 L3.00000743,7.88841158 L5.61188159,5.29097739 L6.41448207,6.06429786 L3,7.88841897 L4.53213693,9.39865989 Z M10.6351166,7.58199878 L10.9562368,7.84463894 L10.3287165,10.2960804 L9.64295604,8.54503937 L10.6351166,7.58199878 Z M5.28727339,8.34804725 L6.06059386,7.54544676 L8.24345519,9.72699209 L9.3949119,9.42780853 L9.64295604,8.54503937 L10.3287165,10.2960844 L7.88471497,10.9599248 L5.28727339,8.34804725 Z M10.3361285,3.62748038 L11,6.07148925 L8.38813527,8.66894744 L7.58549479,7.89562697 L9.76705611,5.71278565 L9.46785593,4.56126495 L8.58512739,4.3132808 L7.62204681,3.3210802 L7.88472697,3 L10.3361285,3.62748038 Z M3.36485622,6.37792205 L3.04377603,6.11528189 L3.67129641,3.6638804 L4.35705682,5.41488147 L3.36485622,6.37792205 Z" id="DCR"></path>
                    </g>
                    <text id="BTM矿机" font-family="MicrosoftYaHei, Microsoft YaHei" font-size="12" font-weight="normal" fill="#FFFFFF">
                        <tspan x="21" y="15">BTM矿机</tspan>
                    </text>
                </g>
            </g>
        </g>
    </g>
</svg>