<?xml version="1.0" encoding="UTF-8"?>
<svg width="81px" height="20px" viewBox="0 0 81 20" version="1.1" xmlns="http://www.w3.org/2000/svg" xmlns:xlink="http://www.w3.org/1999/xlink">
    <!-- Generator: Sketch 50 (54983) - http://www.bohemiancoding.com/sketch -->
    <title>dash</title>
    <desc>Created with Sketch.</desc>
    <defs></defs>
    <g id="1.2增强版" stroke="none" stroke-width="1" fill="none" fill-rule="evenodd">
        <g id="4.1我的托管" transform="translate(-1710.000000, -1437.000000)">
            <g id="dash" transform="translate(1710.000000, 1437.000000)">
                <path d="M10,0 L81,0 L81,20 L10,20 C4.4771525,20 6.76353751e-16,15.5228475 0,10 L0,10 C-6.76353751e-16,4.4771525 4.4771525,1.01453063e-15 10,0 Z" id="Rectangle-2" fill="#303137"></path>
                <g id="比特币" transform="translate(3.000000, 3.000000)" fill="#FFFFFF" fill-rule="nonzero">
                    <g id="DASH">
                        <path d="M7,0 C3.13406897,0 0,3.13406897 0,7 C0,10.865931 3.13406897,14 7,14 C10.865931,14 14,10.865931 14,7 C14,3.13406897 10.865931,0 7,0 Z M7,12.850069 C3.76913793,12.850069 1.14993105,10.2308621 1.14993105,7 C1.14993105,3.76913795 3.76913795,1.14993105 7,1.14993105 C10.2308621,1.14993105 12.850069,3.76913793 12.850069,7 C12.850069,10.2308621 10.2308621,12.850069 7,12.850069 Z M8.42516257,9.56542969 C9.23380098,9.56542969 9.94843419,9.02073958 10.188811,8.22118505 L10.9028239,5.84619666 C10.9313902,5.75117783 10.9459197,5.6522324 10.9459197,5.55271501 C10.9459197,5.00745238 10.5190832,4.56542969 9.99255371,4.56542969 L4.67389544,4.56542969 L4.25679783,5.98465234 L9.03156497,5.98465234 L8.38287802,8.144339 L3.54177337,8.144339 L3.12467577,9.56356165 L7.95603693,9.56542969 L8.42516257,9.56542969 Z M3.33299182,6.41658968 L2.94591966,7.73939775 L6.02620407,7.73939775 L6.41327623,6.41658968 L3.33299182,6.41658968 Z" id="Shape"></path>
                    </g>
                </g>
                <text id="DASH矿机" font-family="MicrosoftYaHei, Microsoft YaHei" font-size="12" font-weight="normal" fill="#FFFFFF">
                    <tspan x="21" y="15">DASH矿机</tspan>
                </text>
            </g>
        </g>
    </g>
</svg>