<?xml version="1.0" encoding="UTF-8"?>
<svg width="81px" height="20px" viewBox="0 0 81 20" version="1.1" xmlns="http://www.w3.org/2000/svg" xmlns:xlink="http://www.w3.org/1999/xlink">
  <!-- Generator: Sketch 50 (54983) - http://www.bohemiancoding.com/sketch -->
  <title>DCR</title>
  <desc>Created with Sketch.</desc>
  <defs></defs>
  <g id="算立方1.1.2" stroke="none" stroke-width="1" fill="none" fill-rule="evenodd">
    <g id="4.1我的托管" transform="translate(-1448.000000, -1528.000000)">
      <g id="Group-4-Copy-8" transform="translate(1055.000000, 1457.000000)">
        <g id="Group-22" transform="translate(393.000000, 71.000000)">
          <g id="DCR">
            <path d="M10,0 L81,0 L81,20 L10,20 C4.4771525,20 6.76353751e-16,15.5228475 0,10 L0,10 C-6.76353751e-16,4.4771525 4.4771525,1.01453063e-15 10,0 Z" id="Rectangle-2" fill="#303137"></path>
            <g id="比特币" transform="translate(3.000000, 3.000000)" fill="#FFFFFF" fill-rule="nonzero">
              <path d="M7,0 C3.13406897,0 0,3.13406897 0,7 C0,10.865931 3.13406897,14 7,14 C10.865931,14 14,10.865931 14,7 C14,3.13406897 10.865931,0 7,0 Z M7,12.850069 C3.76913793,12.850069 1.14993105,10.2308621 1.14993105,7 C1.14993105,3.76913795 3.76913795,1.14993105 7,1.14993105 C10.2308621,1.14993105 12.850069,3.76913793 12.850069,7 C12.850069,10.2308621 10.2308621,12.850069 7,12.850069 Z M7.77149633,6.5117646 L4.95189434,4 L3.18232222,4 L4.88824797,5.50733318 C3.94338445,5.82829756 3.26353236,6.72289056 3.26353236,7.77627152 C3.26353236,9.09937961 4.33612339,10.1719706 5.65923149,10.1719706 L7.67273732,10.1719706 L6.38600218,9.03502869 L5.65923149,9.03502869 C4.9640391,9.03502869 4.40047432,8.47146391 4.40047432,7.77627152 C4.40047432,7.08107913 4.9640391,6.51751434 5.65923149,6.51751434 L7.77149633,6.5117646 Z M6.18232222,7.66020605 L9.00192421,10.1719706 L10.7714963,10.1719706 L9.06557058,8.66463746 C10.0104341,8.34367309 10.6902862,7.44908009 10.6902862,6.39569913 C10.6902862,5.07259104 9.61769515,4 8.29458706,4 L6.28108123,4 L7.56781637,5.13694196 L8.29458706,5.13694196 C8.98977945,5.13694196 9.55334423,5.70050674 9.55334423,6.39569913 C9.55334423,7.09089152 8.98977945,7.65445631 8.29458706,7.65445631 L6.18232222,7.66020605 Z" id="DCR"></path>
            </g>
            <text id="DCR矿机" font-family="MicrosoftYaHei, Microsoft YaHei" font-size="12" font-weight="normal" fill="#FFFFFF">
              <tspan x="21" y="15">DCR矿机</tspan>
            </text>
          </g>
        </g>
      </g>
    </g>
  </g>
</svg>
